<svg width="493" height="165" viewBox="0 0 493 165" fill="none" xmlns="http://www.w3.org/2000/svg">
<rect width="493" height="165" fill="#16453A"/>
<path d="M76 48.5L65.5 20C61.4303 28.0291 60.4475 33.6574 62.5 47C52.5343 45.0432 47.537 44.3146 45 47C44.2792 57.2372 47.8647 62.4227 55.5 71.5C46.7378 72.3049 42.1228 72.9026 37 75.5C47.4648 77.4633 51.238 78.6718 54 81C54 81 34.7002 102 39.5 107.5C45.0579 113.869 61 110 61 110C53.9987 123.688 49.7051 131.838 52 133.5C57.671 130.569 64.0037 122.828 73.5 112.5C79.8046 130.526 83.3395 137.496 91 140C95.2691 134.072 96.3516 128.974 98 119.5C102.934 127.623 106.045 130.46 112 133.5L110.5 121C115.412 121.358 118.824 120.565 127 116C124.588 123.74 121.894 130.014 115.5 143.5C121.769 141.906 125.466 140.526 136 127.5C136 127.5 137.779 142.397 145 145.5C154 148 161.5 119.5 161.5 119.5L180.5 136.5C180.412 129.31 177.962 123.7 169.5 111C169.5 111 182.046 116.973 187.5 112.5C196.5 105.118 179.5 89.5 179.5 89.5L196.5 87.5L179.5 79C179.5 79 201.851 61.3447 195.5 51.5C189.149 41.6553 165.5 51.5 165.5 51.5C169.221 41.464 171.132 35.891 169.5 27.5L156 46.5C154 29 143.493 19.7664 131.5 21.5C137.273 37.7471 138.081 45.8528 131.5 57C125.973 55.1746 121.735 54.7292 112 55C112.55 49.7208 116.654 43.9028 130 29C120.285 29.95 115.169 33.3812 106.5 43.5C106.5 43.5 110.047 29 96.5 23.5C84.8016 18.7506 76 48.5 76 48.5Z" fill="#00B388"/>
<path d="M64.5 74.4999L48 51.9999L69.5 67C63.6638 59.9449 58.9106 56.1152 48 49.4999C63.5 45.4999 78 58.5 86 75.9999L76.5 69.9999C76.5 69.9999 77.5 64.9999 74.5 64.9999C70.5 64.6666 72 69.9999 72 69.9999L92 81.9999C85.8028 81.092 82.4005 79.6626 76.5 74.9999L64.5 74.4999Z" fill="#14463A"/>
<path d="M71 83C75.9314 83.2547 77.1925 82.1343 77.5 78.5C60.5 72 42.1234 94.8663 42.5 105C56.9624 94.2195 64.1679 89.6132 73.5 87C77 86.0199 77.5 89.5 82 89C85.4009 86.7439 85.8486 86.1851 86 85.5C80.0386 86.3582 77.2129 86.0492 72.5 85C67.7373 88.7724 66.0939 88.5233 64.5 85C65.1047 81.4001 66.9859 81.6299 71 83Z" fill="#14463A"/>
<path d="M90 88.5C75.6376 105.707 65.0201 108.132 44.5 108C61.815 92.4542 66.2214 91.7099 75 89C73.9579 91.1247 73.9145 92.3242 76.5 94.5C77.5855 92.4158 86.5403 87.8448 90 88.5Z" fill="#14463A"/>
<path d="M77 103L87 95.5C82.8517 125.902 90 135 90 135C90 135 86.5931 109.81 90 95C90.773 102.034 92.1377 105.807 97.5 112C93.2586 129.299 91.6062 134.92 90 137.5C77.9917 129.145 77.0664 119.493 77 103Z" fill="#14463A"/>
<path d="M104 111L109 103.5C105.733 97.5186 103.494 93.8433 98.5 86.5C104.13 89.0268 106.835 91.9968 110 103L120.5 91C112.834 84.5466 108.75 81.382 103 79C97.1915 83.0503 95.0444 85.228 92.5 89C94.5067 103.971 97.2021 108.333 104 111Z" fill="#14463A"/>
<path d="M106.5 117.5C105.005 111.803 110.121 105.223 124.5 90.5H129.5C121.681 100.752 116.734 106.641 106.5 117.5Z" fill="#14463A"/>
<path d="M108.5 118L130 93L132 108.5C121.346 116.492 115.869 119.531 108.5 118Z" fill="#14463A"/>
<path d="M144.5 142C138.5 138 128.5 87.5 139.5 82.5C137.572 85.948 139.433 88.8196 144.5 94.5C145.945 104.586 146.82 107.454 148.5 107.5C151.194 105.202 150.061 101.123 143 88.5C146.585 91.3249 147.784 93.3591 149 97.5C150.842 98.5572 151.567 97.7069 152.5 94.5C162 114 157.137 136.257 144.5 142Z" fill="#14463A"/>
<path d="M183.5 111C165.372 111.036 158.762 103.092 148.5 85.5C154.032 87.2484 156.969 89.2232 162 94C167.387 93.8201 169.504 93.3859 163.5 89C159.306 88.6718 157.518 87.8191 155 85.5L167.5 84.5C182.679 94.9333 185.873 100.017 187.5 108.5C173.183 95.7894 168.335 92.0983 168 94.5C178.197 103.113 182.454 107.178 183.5 111Z" fill="#14463A"/>
<path d="M160 76C158.259 76.1675 156.242 76.6658 151.5 78C157.5 73.5 173 74.5 171 70C171.081 67.4548 165.386 69.4082 152.5 74.5C157 71.5 181 62 192.5 53.5C196 66 175.5 80 163.5 82.5C162.683 80.2319 161.966 78.8338 160 76Z" fill="#14463A"/>
<path d="M190.5 51.5C176 61 162.877 66.718 146.5 76.5C155.547 67.3639 156.967 64.5491 154 63C149.818 66.0319 149.456 67.4666 149 70C146.363 73.0088 144.209 74.7842 140 78C145.5 60.5 176.898 48.4061 190.5 51.5Z" fill="#14463A"/>
<path d="M138.5 72.5C139.114 66.0799 138.405 62.9902 134 59C139.526 44.4364 140.477 36.5765 135.5 23.5C151.361 29.7101 153.623 38.4707 151.5 59L138.5 72.5Z" fill="#14463A"/>
<path d="M131.5 88C131.708 83.4912 133.253 81.7768 136.5 79C139.219 61.7929 132.773 57.1096 106.5 58C102.662 60.2282 101.6 61.7675 101.5 64.9999C117.268 84.382 123.768 89.2412 131.5 88Z" fill="#14463A"/>
<path d="M102.5 77C103.77 76.0408 104.273 75.2449 104.5 73L110.5 80L102.5 77Z" fill="#14463A"/>
<path d="M99.5 63C99.9825 66.407 100.622 68.474 102.5 72.5L99.5 69.9999L94.5 77C93.2595 69.237 94.2065 66.7006 98 64.5C98.7412 61.7448 98.6483 60.4954 95.5 60C92.7605 62.1548 91.6474 63.8639 91 68.5L86 58C84.1123 58.9509 83.3563 59.8168 83.5 63C88.6857 68.605 89.4254 70.9354 90.5 74.9999C83.871 69.3576 81.655 64.8208 78.5 56C80.6006 41.3484 83.6838 34.5077 95 26.5C89.5536 40.3066 87.6973 47.7897 92 59.5C90.945 46.2585 91.8593 39.0915 97.5 27C106.492 34.8472 105.063 42.3504 103 55.5C101.009 57.8948 100.26 59.5538 99.5 63Z" fill="#14463A"/>
<path d="M104 61.5001C119.462 65.8582 124.747 70.444 132 80.0001C133.5 74.5 116.693 59.9777 104 61.5001Z" fill="#00B388"/>
<path d="M138 90C145.341 110.742 147.179 121.608 144.5 139C152.553 130.482 150.237 118.859 138 90Z" fill="#00B388"/>
<path d="M139 26C146.712 38.4433 146.361 48.2472 139.5 69.5C151.35 43.3734 149.239 35.3685 139 26Z" fill="#00B388"/>
<path d="M221.984 101V39.1818H265.45V52.7045H238.767V63.3295H262.794V76.8523H238.767V101H221.984ZM271.623 101V39.1818H288.406V87.4773H313.399V101H271.623ZM377.662 70.0909C377.662 76.973 376.324 82.7785 373.647 87.5075C370.971 92.2163 367.359 95.7881 362.811 98.223C358.263 100.638 353.192 101.845 347.598 101.845C341.963 101.845 336.872 100.628 332.324 98.1928C327.797 95.7378 324.195 92.1559 321.518 87.4471C318.862 82.7182 317.534 76.9328 317.534 70.0909C317.534 63.2088 318.862 57.4134 321.518 52.7045C324.195 47.9756 327.797 44.4038 332.324 41.989C336.872 39.5541 341.963 38.3366 347.598 38.3366C353.192 38.3366 358.263 39.5541 362.811 41.989C367.359 44.4038 370.971 47.9756 373.647 52.7045C376.324 57.4134 377.662 63.2088 377.662 70.0909ZM360.396 70.0909C360.396 66.3883 359.903 63.2692 358.917 60.7337C357.951 58.178 356.512 56.2462 354.601 54.9382C352.709 53.6101 350.375 52.946 347.598 52.946C344.821 52.946 342.477 53.6101 340.565 54.9382C338.673 56.2462 337.234 58.178 336.248 60.7337C335.282 63.2692 334.8 66.3883 334.8 70.0909C334.8 73.7936 335.282 76.9227 336.248 79.4783C337.234 82.0138 338.673 83.9457 340.565 85.2738C342.477 86.5818 344.821 87.2358 347.598 87.2358C350.375 87.2358 352.709 86.5818 354.601 85.2738C356.512 83.9457 357.951 82.0138 358.917 79.4783C359.903 76.9227 360.396 73.7936 360.396 70.0909ZM385.427 101V39.1818H412.11C416.698 39.1818 420.713 40.0169 424.154 41.6871C427.595 43.3574 430.271 45.7621 432.183 48.9013C434.094 52.0405 435.05 55.8035 435.05 60.1903C435.05 64.6174 434.064 68.3503 432.092 71.3888C430.14 74.4274 427.393 76.7215 423.852 78.271C420.33 79.8204 416.215 80.5952 411.506 80.5952H395.569V67.5554H408.126C410.098 67.5554 411.778 67.3139 413.166 66.831C414.575 66.3279 415.652 65.533 416.396 64.4464C417.161 63.3597 417.543 61.9411 417.543 60.1903C417.543 58.4195 417.161 56.9807 416.396 55.8739C415.652 54.747 414.575 53.922 413.166 53.3988C411.778 52.8555 410.098 52.5838 408.126 52.5838H402.209V101H385.427ZM421.648 72.6264L437.103 101H418.871L403.779 72.6264H421.648ZM458.987 39.1818V101H442.204V39.1818H458.987Z" fill="#00B388"/>
<path d="M226.949 133.341C225.415 133.341 224.094 132.979 222.986 132.254C221.878 131.53 221.026 130.532 220.429 129.261C219.832 127.989 219.534 126.537 219.534 124.903C219.534 123.241 219.839 121.775 220.45 120.504C221.068 119.225 221.928 118.227 223.028 117.51C224.136 116.786 225.429 116.423 226.906 116.423C228.057 116.423 229.094 116.636 230.017 117.062C230.94 117.489 231.697 118.085 232.286 118.852C232.876 119.619 233.241 120.514 233.384 121.537H230.869C230.678 120.791 230.251 120.131 229.591 119.555C228.938 118.973 228.057 118.682 226.949 118.682C225.969 118.682 225.109 118.937 224.371 119.449C223.639 119.953 223.067 120.667 222.656 121.59C222.251 122.506 222.048 123.582 222.048 124.818C222.048 126.082 222.247 127.183 222.645 128.121C223.05 129.058 223.618 129.786 224.349 130.305C225.088 130.823 225.955 131.082 226.949 131.082C227.602 131.082 228.195 130.969 228.728 130.741C229.261 130.514 229.712 130.188 230.081 129.761C230.45 129.335 230.713 128.824 230.869 128.227H233.384C233.241 129.193 232.89 130.063 232.329 130.837C231.775 131.604 231.04 132.215 230.124 132.67C229.214 133.117 228.156 133.341 226.949 133.341ZM247.371 126.31V116.636H249.886V133H247.371V130.23H247.201C246.817 131.061 246.221 131.768 245.411 132.35C244.602 132.925 243.579 133.213 242.343 133.213C241.32 133.213 240.411 132.989 239.616 132.542C238.82 132.087 238.195 131.406 237.741 130.496C237.286 129.58 237.059 128.426 237.059 127.034V116.636H239.573V126.864C239.573 128.057 239.907 129.009 240.575 129.719C241.249 130.429 242.109 130.784 243.153 130.784C243.778 130.784 244.413 130.624 245.06 130.305C245.713 129.985 246.26 129.495 246.7 128.835C247.148 128.174 247.371 127.332 247.371 126.31ZM257.005 111.182V133H254.491V111.182H257.005ZM268.726 116.636V118.767H260.246V116.636H268.726ZM262.718 112.716H265.232V128.312C265.232 129.023 265.335 129.555 265.541 129.911C265.754 130.259 266.024 130.493 266.35 130.614C266.684 130.727 267.036 130.784 267.405 130.784C267.682 130.784 267.909 130.77 268.087 130.741C268.265 130.706 268.407 130.678 268.513 130.656L269.025 132.915C268.854 132.979 268.616 133.043 268.311 133.107C268.005 133.178 267.618 133.213 267.15 133.213C266.439 133.213 265.743 133.06 265.061 132.755C264.387 132.45 263.826 131.984 263.378 131.359C262.938 130.734 262.718 129.946 262.718 128.994V112.716ZM282.821 126.31V116.636H285.335V133H282.821V130.23H282.65C282.267 131.061 281.67 131.768 280.86 132.35C280.051 132.925 279.028 133.213 277.792 133.213C276.77 133.213 275.86 132.989 275.065 132.542C274.27 132.087 273.645 131.406 273.19 130.496C272.735 129.58 272.508 128.426 272.508 127.034V116.636H275.022V126.864C275.022 128.057 275.356 129.009 276.024 129.719C276.699 130.429 277.558 130.784 278.602 130.784C279.227 130.784 279.863 130.624 280.509 130.305C281.162 129.985 281.709 129.495 282.15 128.835C282.597 128.174 282.821 127.332 282.821 126.31ZM289.94 133V116.636H292.369V119.108H292.539C292.838 118.298 293.377 117.641 294.159 117.137C294.94 116.633 295.82 116.381 296.801 116.381C296.985 116.381 297.216 116.384 297.493 116.391C297.77 116.398 297.98 116.409 298.122 116.423V118.98C298.036 118.959 297.841 118.927 297.536 118.884C297.237 118.835 296.921 118.81 296.588 118.81C295.792 118.81 295.082 118.977 294.457 119.31C293.839 119.637 293.349 120.092 292.987 120.674C292.632 121.249 292.454 121.906 292.454 122.645V133H289.94ZM307.465 133.341C305.888 133.341 304.528 132.993 303.384 132.297C302.248 131.594 301.371 130.614 300.753 129.357C300.142 128.092 299.837 126.622 299.837 124.946C299.837 123.27 300.142 121.793 300.753 120.514C301.371 119.229 302.23 118.227 303.331 117.51C304.439 116.786 305.732 116.423 307.209 116.423C308.061 116.423 308.903 116.565 309.734 116.849C310.565 117.134 311.321 117.595 312.003 118.234C312.685 118.866 313.228 119.705 313.633 120.749C314.038 121.793 314.24 123.078 314.24 124.605V125.67H301.627V123.497H311.683C311.683 122.574 311.499 121.75 311.129 121.026C310.767 120.301 310.249 119.729 309.574 119.31C308.906 118.891 308.118 118.682 307.209 118.682C306.208 118.682 305.341 118.93 304.61 119.428C303.885 119.918 303.328 120.557 302.937 121.345C302.546 122.134 302.351 122.979 302.351 123.881V125.33C302.351 126.565 302.564 127.613 302.99 128.472C303.423 129.325 304.024 129.974 304.791 130.422C305.558 130.862 306.449 131.082 307.465 131.082C308.125 131.082 308.722 130.99 309.254 130.805C309.794 130.614 310.259 130.33 310.65 129.953C311.041 129.57 311.343 129.094 311.556 128.526L313.985 129.207C313.729 130.031 313.299 130.756 312.695 131.381C312.092 131.999 311.346 132.482 310.458 132.83C309.57 133.17 308.573 133.341 307.465 133.341Z" fill="#00B388"/>
</svg>
